PathFileType	3	(X/Y/Z)	F:\ViconData\AntennenMessung\Messung1\Session1\ID19.trc
DataRate	CameraRate	NumFrames	NumMarkers	Units	OrigDataRate	OrigDataStartFrame	OrigNumFrames
120.0	120.0	6	70	mm	120.0	118	942	
Frame#	Time	Ashort			Along			Atop			A4			Bshort			Blong			Btop			B4			Cshort			Clong			Ctop			C4			Dshort			Dlong			Dtop			D4			Eshort			Elong			Etop			E4			Fshort			Flong			Ftop			F4			Gshort			Glong			Gtop			G4			Hshort			Hlong			Htop			H4			I1			I2			I3			I4			I5			WandAshort			WandAlong			WandAtop			WandA4			WandA15			WandBshort			WandB4			WandB5			WandBtop			WandBlong			WandCshort			WandClong			WandCtop			WandC4			WandC5			Acenter			Aantenna			Bcenter			Bantenna			Ccenter			Cantenna			Dcenter			Dantenna			Ecenter			Eantenna			Fcenter			Fantenna			Gcenter			Gantenna			Hcenter			Hantenna			Icenter			Iantenna			
		X1	Y1	Z1	X2	Y2	Z2	X3	Y3	Z3	X4	Y4	Z4	X5	Y5	Z5	X6	Y6	Z6	X7	Y7	Z7	X8	Y8	Z8	X9	Y9	Z9	X10	Y10	Z10	X11	Y11	Z11	X12	Y12	Z12	X13	Y13	Z13	X14	Y14	Z14	X15	Y15	Z15	X16	Y16	Z16	X17	Y17	Z17	X18	Y18	Z18	X19	Y19	Z19	X20	Y20	Z20	X21	Y21	Z21	X22	Y22	Z22	X23	Y23	Z23	X24	Y24	Z24	X25	Y25	Z25	X26	Y26	Z26	X27	Y27	Z27	X28	Y28	Z28	X29	Y29	Z29	X30	Y30	Z30	X31	Y31	Z31	X32	Y32	Z32	X33	Y33	Z33	X34	Y34	Z34	X35	Y35	Z35	X36	Y36	Z36	X37	Y37	Z37	X38	Y38	Z38	X39	Y39	Z39	X40	Y40	Z40	X41	Y41	Z41	X42	Y42	Z42	X43	Y43	Z43	X44	Y44	Z44	X45	Y45	Z45	X46	Y46	Z46	X47	Y47	Z47	X48	Y48	Z48	X49	Y49	Z49	X50	Y50	Z50	X51	Y51	Z51	X52	Y52	Z52	X53	Y53	Z53	X54	Y54	Z54	X55	Y55	Z55	X56	Y56	Z56	X57	Y57	Z57	X58	Y58	Z58	X59	Y59	Z59	X60	Y60	Z60	X61	Y61	Z61	X62	Y62	Z62	X63	Y63	Z63	X64	Y64	Z64	X65	Y65	Z65	X66	Y66	Z66	X67	Y67	Z67	X68	Y68	Z68	X69	Y69	Z69	X70	Y70	Z70	
118	0.975	-1038.2515	214.50139	-1644.2341	-1109.4156	203.9767	-1599.2614	-1063.8326	173.05469	-1625.6825	-1054.2284	262.22372	-1634.9535	-1353.0569	234.79077	1003.5052	-1281.4045	227.19597	1052.4725	-1322.7686	193.87721	1020.9341	-1284.7405	287.80325	1052.7887	814.0116	187.65898	1209.4718	892.14545	178.4558	1179.2738	844.30487	145.59865	1198.2948	860.66064	292.2637	1167.4821	1115.7148	209.79428	-1401.8147	1056.1465	193.99483	-1460.3806	1095.0238	162.26862	-1423.9731	1069.8473	238.67996	-1425.8422	-1204.6676	1686.0264	-1562.9984	-1129.1923	1688.2494	-1605.995	-1173.2185	1724.4108	-1581.9454	-1134.08	1580.9352	-1603.8425	-1239.6418	1699.1935	1119.4948	-1309.0135	1698.2003	1071.7034	-1270.3846	1736.2523	1096.8618	-1245.4248	1592.6438	1110.6663	988.87463	1664.2086	1162.2498	956.02979	1702.3521	1181.1368	922.85626	1661.9943	1215.1139	939.72906	1659.4043	1159.9247	998.953	1668.4292	-1579.4463	1058.77	1670.1106	-1518.6447	1024.8973	1708.0127	-1551.1311	1059.181	1672.1157	-1585.4792	-186.39233	163.37424	-148.5043	-189.22337	171.7726	-64.547638	-186.66472	127.21121	-106.07771	-155.32462	168.03964	-111.70937	-236.13121	164.90396	-113.56403																																														-1068.8126	209.9816	-1624.9208	-1074.0238	248.62366	-1624.1238	-1321.5769	231.45404	1025.0186	-1320.3481	270.20642	1029.231	848.02606	183.6525	1196.3256	851.81659	222.41599	1194.3196	1088.6736	202.62209	-1428.4006	1082.6465	240.92369	-1432.603	-1171.9427	1686.9901	-1581.6409	-1170.6141	1648.014	-1581.3236	-1270.6996	1698.7488	1098.0984	-1271.0271	1659.7714	1099.3834	953.84882	1704.8846	1182.3909	973.27625	1731.7701	1161.8789	1026.4055	1669.2008	-1551.5417	1027.92	1630.2324	-1551.954	-187.68687	167.21451	-110.11379	-188.67804	206.00497	-114.02751
119	0.98333333	-1038.2712	214.42534	-1644.1838	-1109.4193	204.0226	-1599.2825	-1063.9513	172.55498	-1625.4037	-1054.2152	262.28268	-1634.9932	-1352.9121	234.87167	1003.664	-1281.3289	227.16908	1052.4039	-1322.7556	193.88898	1020.9137	-1284.78	287.84009	1052.8406	813.91095	187.68979	1209.405	892.08813	178.45334	1179.2725	844.58356	145.42967	1198.3302	860.61273	292.362	1167.4554	1115.7152	209.7986	-1401.8029	1056.115	194.00612	-1460.4652	1095.1141	162.34828	-1423.9795	1069.8398	238.65308	-1425.8429	-1204.6627	1686.0347	-1562.9934	-1129.2263	1688.2716	-1606.0132	-1173.2356	1724.4232	-1581.9567	-1134.0924	1580.9465	-1603.8342	-1239.6566	1699.2153	1119.5029	-1309.2371	1698.5945	1071.8542	-1270.3776	1736.2507	1096.8636	-1245.4717	1592.6956	1110.6802	988.86169	1664.1921	1162.2539	955.89526	1702.3118	1181.1185	922.94269	1661.9501	1215.1615	939.75543	1659.4191	1159.876	998.93378	1668.4655	-1579.4987	1058.6473	1669.9441	-1518.6569	1024.8977	1708.0151	-1551.1277	1059.1888	1672.1198	-1585.4761	-186.33788	163.22343	-148.5405	-189.20871	171.76414	-64.535866	-186.69254	127.15709	-106.03586	-155.33748	168.0392	-111.69766	-236.14627	164.94397	-113.59904																																														-1069.0209	209.92935	-1624.7778	-1074.2622	248.57011	-1624.1309	-1321.5183	231.49359	1025.0396	-1320.2437	270.24023	1029.2905	848.26233	183.63124	1196.1646	851.99475	222.39001	1193.9675	1088.74	202.65089	-1428.3535	1082.6825	240.95267	-1432.5104	-1171.9502	1687.0046	-1581.6484	-1170.6113	1648.0289	-1581.3275	-1270.8973	1698.9365	1098.109	-1271.4406	1659.9619	1099.4099	953.73248	1704.8124	1182.356	973.05664	1731.7134	1161.7668	1026.328	1669.1438	-1551.5868	1027.762	1630.1729	-1552.047	-187.65045	167.12836	-110.13245	-188.57997	205.91411	-114.10756
120	0.99166667	-1038.2656	214.54034	-1644.2545	-1109.4114	204.03174	-1599.2925	-1063.7656	173.05827	-1625.6582	-1054.2344	262.21912	-1634.9595	-1353.0649	234.69133	1003.5519	-1281.342	227.14319	1052.4794	-1322.7681	193.84851	1020.9422	-1284.8091	287.82217	1052.9409	813.8446	187.78647	1209.3826	892.19659	178.52687	1179.2524	844.47107	145.46983	1198.2201	860.52344	292.47958	1167.3768	1115.6881	209.52571	-1401.6506	1056.1359	193.96233	-1460.3652	1095.0452	162.27299	-1423.9554	1069.7964	238.61536	-1425.8322	-1204.5675	1685.9309	-1563.2057	-1129.192	1688.2697	-1606.0059	-1173.2255	1724.4266	-1581.9436	-1134.0876	1580.9393	-1603.845	-1239.6492	1699.1951	1119.5104	-1309.0013	1698.21	1071.7058	-1270.3838	1736.2554	1096.8685	-1245.3618	1592.5717	1110.6405	988.86353	1664.1973	1162.2577	955.8609	1702.2903	1181.0662	922.94312	1662.0001	1215.1071	939.7771	1659.4482	1159.869	998.95703	1668.4277	-1579.4508	1058.6409	1669.9419	-1518.6544	1024.9053	1708.0079	-1551.1276	1059.1875	1672.1141	-1585.48	-186.37444	163.38074	-148.515	-189.24113	171.80144	-64.529037	-186.71364	127.23424	-106.03531	-155.31555	168.0558	-111.70815	-236.1382	164.94527	-113.60851																																														-1068.7887	210.03189	-1624.9647	-1074.038	248.67024	-1624.2402	-1321.5984	231.37978	1025.0175	-1320.3906	270.1333	1029.2256	848.20374	183.72592	1196.1697	851.98553	222.4865	1194.0923	1088.7405	202.48322	-1428.2192	1082.7322	240.8028	-1432.2826	-1171.942	1686.9431	-1581.7313	-1170.6073	1647.9667	-1581.5105	-1270.7034	1698.7539	1098.1047	-1271.0354	1659.7765	1099.3895	953.67291	1704.8157	1182.313	972.98047	1731.7167	1161.7084	1026.3348	1669.1222	-1551.5624	1027.7678	1630.1509	-1551.9985	-187.68637	167.23444	-110.07904	-188.62971	206.02531	-114.00053
121	1	-1038.2715	214.54498	-1644.249	-1109.4177	204.0553	-1599.281	-1063.8218	172.99797	-1625.6718	-1054.1865	262.21115	-1634.9443	-1352.9019	234.83287	1003.659	-1281.2993	227.10654	1052.4604	-1322.7413	193.84927	1020.9695	-1284.7772	287.84988	1052.8501	813.96521	187.7334	1209.5399	892.5932	179.20332	1178.8	844.3913	145.6291	1198.276	860.59442	292.42935	1167.434	1115.7228	209.79593	-1401.8114	1056.1097	193.97444	-1460.4178	1095.1573	162.4241	-1424.0068	1069.8323	238.63997	-1425.8527	-1204.6235	1686.0057	-1563.0723	-1129.1793	1688.2988	-1606.0361	-1173.2375	1724.433	-1581.9484	-1134.0967	1580.9465	-1603.8438	-1239.6465	1699.1964	1119.5137	-1309.226	1698.5599	1071.8242	-1270.3809	1736.2587	1096.8633	-1245.4337	1592.677	1110.6764	988.87415	1664.2135	1162.2537	955.95941	1702.3313	1181.1647	922.84442	1661.955	1215.0419	939.7467	1659.3673	1159.9236	998.95782	1668.4355	-1579.4674	1058.6545	1669.9442	-1518.655	1024.9199	1708.0199	-1551.1305	1059.1859	1672.1189	-1585.4713	-186.41116	163.37791	-148.50197	-189.23268	171.79395	-64.524841	-186.69481	127.17816	-106.00047	-155.34354	168.04092	-111.71268	-236.15224	164.96274	-113.56828																																														-1068.8209	210.04079	-1624.9401	-1074.036	248.683	-1624.177	-1321.4819	231.44247	1025.0734	-1320.1838	270.19064	1029.3036	847.79395	184.06342	1196.3143	851.22882	222.86136	1194.3341	1088.7421	202.63513	-1428.3367	1082.632	240.93214	-1432.4603	-1171.9474	1686.9989	-1581.6807	-1170.604	1648.0229	-1581.402	-1270.8875	1698.9106	1098.1011	-1271.4163	1659.9355	1099.3929	953.78046	1704.8545	1182.4164	973.19531	1731.7773	1161.9414	1026.3468	1669.1277	-1551.5665	1027.7766	1630.1564	-1552.0034	-187.70312	167.23164	-110.04844	-188.67966	206.02182	-113.96873
122	1.0083333	-1038.2766	214.46225	-1644.1885	-1109.431	204.03136	-1599.2629	-1063.847	173.0291	-1625.6304	-1054.2391	262.20746	-1634.9456	-1352.9786	234.83577	1003.5819	-1281.3785	227.17317	1052.4458	-1322.7697	193.87292	1020.9697	-1284.7823	287.82623	1052.9255	813.90656	187.66518	1209.5067	892.15765	178.49263	1179.2963	844.3338	145.5497	1198.3058	860.72382	292.39709	1167.7245	1115.688	209.52829	-1401.6543	1056.0739	193.92993	-1460.3967	1095.1379	162.35823	-1424.0015	1069.8005	238.61891	-1425.8661	-1204.5577	1685.9301	-1563.2137	-1129.2013	1688.2721	-1606.0173	-1173.2329	1724.4253	-1581.9521	-1134.0935	1580.9471	-1603.8378	-1239.6703	1699.2252	1119.5027	-1309.2292	1698.5883	1071.8497	-1270.3812	1736.2462	1096.8582	-1245.5057	1592.7875	1110.7153	988.92493	1664.2736	1162.2548	955.84222	1702.3562	1181.0992	922.85699	1661.9828	1215.1241	939.80225	1659.4185	1159.921	998.95105	1668.4401	-1579.4713	1058.6525	1669.9536	-1518.658	1024.9183	1708.0083	-1551.1299	1059.1836	1672.1154	-1585.4651	-186.38252	163.37358	-148.51913	-189.242	171.81982	-64.541283	-186.6046	127.87167	-107.0261	-155.33583	168.05089	-111.70917	-236.14461	164.91942	-113.59676																																														-1068.8101	209.98618	-1624.9102	-1074	248.63199	-1624.1572	-1321.5276	231.46989	1025.0457	-1320.2476	270.22183	1029.2468	848.03857	183.66425	1196.3292	851.80652	222.4297	1194.3191	1088.7626	202.48309	-1428.1859	1082.6747	240.79723	-1432.1818	-1171.9462	1686.9435	-1581.7375	-1170.608	1647.967	-1581.5146	-1270.897	1698.9392	1098.1099	-1271.436	1659.9648	1099.4177	953.61877	1704.9155	1182.3657	972.92218	1731.8564	1161.8094	1026.3469	1669.1345	-1551.5651	1027.7793	1630.1633	-1552.0013	-187.65964	167.1459	-111.0121	-188.70158	205.93274	-114.94865
123	1.0166667	-1038.2332	214.37666	-1644.2754	-1109.3861	204.08687	-1599.3242	-1063.7994	173.05394	-1625.6505	-1054.2172	262.242	-1634.988	-1353.0732	234.84201	1003.5681	-1281.3394	227.1037	1052.4611	-1322.7924	193.82947	1020.9731	-1284.771	287.81061	1052.8384	813.98419	187.68027	1209.514	892.15656	178.46761	1179.2766	844.48975	145.38928	1198.2688	860.61719	292.38629	1167.5321	1115.7286	209.80144	-1401.808	1056.0825	193.89888	-1460.3575	1095.0946	162.3633	-1423.96	1069.8104	238.60408	-1425.8669	-1204.6249	1685.9968	-1563.0706	-1129.2123	1688.2848	-1606.0254	-1173.2289	1724.4119	-1581.9396	-1134.0922	1580.95	-1603.8469	-1239.6584	1699.2074	1119.5049	-1309.0229	1698.2106	1071.7141	-1270.4142	1736.298	1096.8813	-1245.4615	1592.7014	1110.6821	988.87366	1664.2294	1162.2579	955.91626	1702.303	1181.1339	922.74951	1661.9535	1215.0817	939.75195	1659.411	1159.9147	998.94067	1668.4675	-1579.5072	1058.6462	1669.9402	-1518.6528	1024.9053	1708.0078	-1551.1301	1059.191	1672.12	-1585.4784	-186.32965	163.23846	-148.54973	-189.24904	171.78854	-64.540688	-186.83681	127.35139	-106.3735	-155.31834	168.07436	-111.71188	-236.16425	164.95612	-113.58842																																														-1068.7314	209.96613	-1625.0078	-1073.8959	248.61682	-1624.3351	-1321.5272	231.43898	1025.0693	-1320.2236	270.18802	1029.2898	848.22479	183.64497	1196.2695	852.00952	222.408	1194.2438	1088.6838	202.59091	-1428.3555	1082.5817	240.88266	-1432.5393	-1171.9475	1686.9882	-1581.6833	-1170.613	1648.0118	-1581.4166	-1270.7181	1698.761	1098.1055	-1271.0337	1659.783	1099.3765	953.66394	1704.9048	1182.4237	973.05206	1731.8419	1161.9423	1026.3317	1669.1431	-1551.589	1027.762	1630.172	-1552.0492	-187.65367	167.1162	-110.44896	-188.45049	205.90486	-114.42439
